HIERARCHY
ROOT RootJoint
{
    OFFSET   0.000000   0.000000   0.000000
    CHANNELS 6 Xposition Yposition Zposition Xrotation Yrotation Zrotation
    JOINT pelvis_lowerback
    {
        OFFSET   0.000000   0.093605   0.000000
        CHANNELS 3 Xrotation Yrotation Zrotation
        JOINT lowerback_torso
        {
            OFFSET   0.000000   0.100000   0.000000
            CHANNELS 3 Xrotation Yrotation Zrotation
            JOINT torso_head
            {
                OFFSET   0.000000   0.282350   0.000000
                CHANNELS 3 Xrotation Yrotation Zrotation
                End Site
                {
                    OFFSET   0.000000   0.192650   0.000000
                }
            }
            JOINT rTorso_Clavicle
            {
                OFFSET  -0.001000   0.157500   0.000000
                CHANNELS 3 Xrotation Yrotation Zrotation
                JOINT rShoulder
                {
                    OFFSET  -0.117647   0.000000   0.000000
                    CHANNELS 3 Xrotation Yrotation Zrotation
                    JOINT rElbow
                    {
                        OFFSET  -0.245000   0.000000   0.000000
                        CHANNELS 3 Xrotation Yrotation Zrotation
                        JOINT rWrist
                        {
                            OFFSET  -0.240000   0.000000   0.000000
                            CHANNELS 3 Xrotation Yrotation Zrotation
                            End Site
                            {
                                OFFSET  -0.116353  -0.002500   0.000000
                            }
                        }
                    }
                }
            }
            JOINT lTorso_Clavicle
            {
                OFFSET   0.001000   0.157500   0.000000
                CHANNELS 3 Xrotation Yrotation Zrotation
                JOINT lShoulder
                {
                    OFFSET   0.117647   0.000000   0.000000
                    CHANNELS 3 Xrotation Yrotation Zrotation
                    JOINT lElbow
                    {
                        OFFSET   0.245000   0.000000   0.000000
                        CHANNELS 3 Xrotation Yrotation Zrotation
                        JOINT lWrist
                        {
                            OFFSET   0.240000   0.000000   0.000000
                            CHANNELS 3 Xrotation Yrotation Zrotation
                            End Site
                            {
                                OFFSET   0.116353  -0.002500   0.000000
                            }
                        }
                    }
                }
            }
        }
    }
    JOINT rHip
    {
        OFFSET  -0.100000  -0.051395   0.000000
        CHANNELS 3 Xrotation Yrotation Zrotation
        JOINT rKnee
        {
            OFFSET   0.000000  -0.410000   0.000000
            CHANNELS 3 Xrotation Yrotation Zrotation
            JOINT rAnkle
            {
                OFFSET   0.000000  -0.390000   0.000000
                CHANNELS 3 Xrotation Yrotation Zrotation
                JOINT rToeJoint
                {
                    OFFSET   0.000000  -0.050000   0.130000
                    CHANNELS 3 Xrotation Yrotation Zrotation
                    End Site
                    {
                        OFFSET  -0.010000   0.002000   0.060000
                    }
                }
            }
        }
    }
    JOINT lHip
    {
        OFFSET   0.100000  -0.051395   0.000000
        CHANNELS 3 Xrotation Yrotation Zrotation
        JOINT lKnee
        {
            OFFSET   0.000000  -0.410000   0.000000
            CHANNELS 3 Xrotation Yrotation Zrotation
            JOINT lAnkle
            {
                OFFSET   0.000000  -0.390000   0.000000
                CHANNELS 3 Xrotation Yrotation Zrotation
                JOINT lToeJoint
                {
                    OFFSET   0.000000  -0.050000   0.130000
                    CHANNELS 3 Xrotation Yrotation Zrotation
                    End Site
                    {
                        OFFSET   0.010000   0.002000   0.060000
                    }
                }
            }
        }
    }
}
MOTION
Frames: 11
Frame Time:   0.008333
 -3.053792   0.935061   4.241620  29.649455 -10.458362   8.985551  12.460417   5.629415  -6.457679  -5.852734  -0.894776  -7.923096   1.027844  -2.938357  -2.115996  -4.181010  14.048623 -22.384889 -18.121442  20.415107  14.671629   0.012037  15.980981   0.012229   2.726833   0.919363  -0.371733  -6.351299  -9.546766  14.148867 -10.744765 -10.459848 -10.037537   0.031057 -10.716900  -0.007126   2.221373  -3.822297   4.674549 -26.422271 -18.952750  -1.930295  29.790063  -0.000340   0.000520   1.842557 -21.319879  10.753068  -3.676283   0.002427  -0.005823 -35.762713  -3.422817  -2.451501   5.864226   0.000674  -0.000687  14.564540   6.192686   3.491487 -21.687734  -0.000267  -0.000175
 -3.055367   0.935354   4.240365  29.514871 -10.375779   8.868534  12.641836   5.705193  -6.355027  -5.893527  -0.794494  -7.963476   0.981121  -3.144864  -2.061225  -4.096289  14.995725 -22.041508 -18.364389  21.331760  15.380877   0.014812  16.562243   0.011464   2.731931   0.801251  -0.564383  -6.293899 -10.432542  13.607859 -10.846616 -11.343287 -10.907130   0.035599 -11.570056  -0.006191   2.144190  -3.482571   5.164103 -26.550616 -19.080382  -2.031556  29.825070  -0.000257   0.000407   1.343588 -21.795710  10.446571  -3.143156   0.002403  -0.006399 -35.779336  -3.381017  -2.299564   5.981782   0.000409  -0.000359  14.785336   6.013578   3.415612 -21.968038  -0.000149  -0.000174
 -3.056941   0.935820   4.239118  29.331286 -10.345166   8.738459  12.833634   5.787877  -6.249390  -5.897373  -0.695238  -7.998861   0.913801  -3.336384  -1.999767  -3.967371  15.975177 -21.680913 -18.616549  22.256123  16.124243   0.017371  17.135292   0.010584   2.738918   0.814653  -0.661389  -6.213305 -11.358248  13.018239 -10.962637 -12.241058 -11.813232   0.039693 -12.399976  -0.005319   2.078517  -3.290782   5.510976 -26.683673 -19.192585  -2.159896  29.841116  -0.000197   0.000317   0.869279 -22.239911  10.153194  -2.677824   0.002188  -0.006640 -35.781989  -3.319215  -2.124851   6.181181   0.000112   0.000011  15.050917   5.864969   3.342982 -22.378223   0.000028  -0.000210
 -3.058557   0.936385   4.237875  29.116394 -10.354494   8.592357  13.034819   5.860658  -6.147272  -5.865889  -0.606556  -8.030893   0.838052  -3.514221  -1.937050  -3.817513  16.951166 -21.322317 -18.874101  23.160946  16.870731   0.019345  17.688129   0.009498   2.744927   0.935511  -0.671915  -6.125921 -12.282847  12.422262 -11.089349 -13.119021 -12.711673   0.042686 -13.191383  -0.004455   2.022592  -3.209879   5.739339 -26.833269 -19.293650  -2.302317  29.847600  -0.000153   0.000248   0.422137 -22.652571   9.874518  -2.254568   0.001872  -0.006669 -35.761911  -3.251357  -1.921727   6.414001  -0.000161   0.000327  15.329116   5.739280   3.277749 -22.837906   0.000251  -0.000247
 -3.060236   0.937000   4.236639  28.882488 -10.390541   8.431480  13.244413   5.917215  -6.053201  -5.807307  -0.532990  -8.061646   0.761827  -3.680111  -1.875779  -3.661430  17.898555 -20.976606 -19.132769  24.029610  17.602172   0.020617  18.215119   0.008256   2.750525   1.121115  -0.627904  -6.039981 -13.185384  11.841746 -11.224058 -13.963594 -13.582109   0.044473 -13.940538  -0.003624   1.974208  -3.197671   5.893908 -27.004454 -19.385475  -2.454737  29.844762  -0.000124   0.000201   0.001021 -23.035903   9.610276  -1.868554   0.001515  -0.006525 -35.722623  -3.184248  -1.693049   6.660965  -0.000401   0.000573  15.605623   5.628867   3.219889 -23.312102   0.000494  -0.000272
 -3.061988   0.937639   4.235421  28.637070 -10.443634   8.258137  13.459896   5.955691  -5.969732  -5.729126  -0.476354  -8.093022   0.689177  -3.835114  -1.817416  -3.507826  18.802942 -20.649132 -19.389302  24.852960  18.307906   0.021205  18.713348   0.006943   2.755858   1.339883  -0.553950  -5.959549 -14.054622  11.286863 -11.364414 -14.768126 -14.414857   0.045150 -14.646606  -0.002873   1.931590  -3.227575   6.004688 -27.197395 -19.468695  -2.615764  29.832398  -0.000108   0.000174  -0.395361 -23.392032   9.360041  -1.516213   0.001158  -0.006248 -35.667836  -3.121560  -1.443235   6.912899  -0.000605   0.000756  15.873052   5.528824   3.168857 -23.783589   0.000735  -0.000280
 -3.063804   0.938376   4.234221  28.383886 -10.521366   8.096046  13.689968   5.977816  -5.916687  -5.634581  -0.433823  -8.136159   0.620919  -3.979922  -1.763205  -3.361050  19.658964 -20.340551 -19.641819  25.627892  18.982917   0.021241  19.182085   0.005598   2.760856   1.571731  -0.469932  -5.886866 -14.883807  10.761027 -11.508265 -15.528673 -15.204770   0.044939 -15.309729  -0.002204   1.893229  -3.281551   6.094396 -27.417471 -19.539651  -2.801180  29.808699  -0.000104   0.000168  -0.768173 -23.722947   9.123269  -1.192962   0.000798  -0.005928 -35.618841  -3.088291  -1.183753   7.186952  -0.000824   0.000800  16.204173   5.409299   3.123994 -20.962702  -0.001656  -0.001796
 -3.065417   0.938796   4.233281  28.174619 -10.577533   7.988293  13.828715   5.990330  -5.860053  -5.609958  -0.362525  -8.161261   0.545243  -4.185715  -1.727011  -3.275143  20.529812 -20.047990 -19.733673  26.428983  19.746241   0.024493  19.971585   0.004558   2.748107   1.427354  -0.519270  -5.796969 -15.646074  10.302804 -11.489268 -16.382062 -16.272505   0.049036 -16.188536  -0.000392   1.827075  -3.083670   6.336175 -27.781447 -19.886476  -3.142013  29.945105  -0.000077  -0.000373  -1.063522 -24.063117   8.949975  -0.803038   0.000285  -0.006981 -35.556830  -2.913604  -0.997113   7.446916  -0.000877   0.001107  16.339687   5.308878   3.069551 -21.989772  -0.000899  -0.002370
 -3.066989   0.939049   4.232425  27.968241 -10.616342   7.904053  13.949260   6.001981  -5.802019  -5.594509  -0.295927  -8.188038   0.453456  -4.379785  -1.686280  -3.171020  21.406787 -19.763485 -19.846900  27.229412  20.506242   0.026723  20.737174   0.003831   2.736577   1.418551  -0.531528  -5.692175 -16.417748   9.818689 -11.491469 -17.225144 -17.340603   0.051778 -17.032296   0.000976   1.776959  -3.007472   6.449974 -28.168488 -20.223005  -3.511527  30.085584  -0.000060  -0.000805  -1.337768 -24.382993   8.786695  -0.436522  -0.000145  -0.007596 -35.476015  -2.759896  -0.838441   7.669135  -0.000887   0.001247  16.406133   5.197417   3.019007 -22.761747  -0.000436  -0.002421
 -3.068574   0.939184   4.231584  27.762203 -10.639090   7.835977  14.071664   6.008887  -5.749119  -5.571817  -0.237209  -8.218882   0.356883  -4.560702  -1.644358  -3.062091  22.267272 -19.496365 -19.974643  28.006831  21.241763   0.027953  21.464968   0.003145   2.725409   1.494113  -0.517905  -5.587282 -17.180456   9.337738 -11.513563 -18.040757 -18.374385   0.053029 -17.831254   0.002060   1.735563  -3.005890   6.488203 -28.561896 -20.531458  -3.883065  30.210342  -0.000053  -0.001052  -1.595185 -24.681354   8.632168  -0.099857  -0.000515  -0.007756 -35.395865  -2.627070  -0.696653   7.866214  -0.000885   0.001290  16.447755   5.080164   2.968937 -23.356102  -0.000129  -0.002241
 -3.070194   0.939247   4.230736  27.560193 -10.646859   7.784188  14.201793   6.009513  -5.706889  -5.538394  -0.186626  -8.255274   0.262543  -4.729473  -1.603798  -2.955182  23.096504 -19.248291 -20.111690  28.750821  21.944929   0.028364  22.152260   0.002441   2.714916   1.616450  -0.493131  -5.488182 -17.919970   8.873950 -11.551995 -18.820506 -19.360836   0.052992 -18.584256   0.002928   1.700358  -3.048811   6.488838 -28.958935 -20.813591  -4.248295  30.317124  -0.000057  -0.001155  -1.836993 -24.959293   8.486123   0.209036  -0.000835  -0.007596 -35.319458  -2.509861  -0.572563   8.057608  -0.000884   0.001296  16.472818   4.960057   2.916340 -23.836043   0.000065  -0.001984
